<svg xmlns="http://www.w3.org/2000/svg" viewBox="0 0 64 64" role="img" aria-label="Microscope favicon">
  <rect width="64" height="64" rx="12" fill="#f8fafc"/>
  <path d="M14 50h40a4 4 0 0 1 0 8H14a4 4 0 0 1 0-8Z" fill="#94a3b8"/>
  <rect x="18" y="43" width="20" height="5" rx="2.5" transform="rotate(-12 18 43)" fill="#64748b"/>
  <path d="M38 17 25 31a2 2 0 0 0 .1 2.9l8 8a2 2 0 0 0 2.9-.1l13-14a2 2 0 0 0-.1-2.9l-8-8A2 2 0 0 0 38 17Z" fill="#94a3b8"/>
  <rect x="24" y="31" width="20" height="4" transform="rotate(45 24 31)" fill="#cbd5e1"/>
  <path d="M42.8 33.6a14 14 0 0 1-4 18.6" fill="none" stroke="#64748b" stroke-width="6" stroke-linecap="round"/>
  <circle cx="39" cy="50" r="6" fill="#94a3b8"/>
  <rect x="44" y="11" width="9" height="15" rx="3" transform="rotate(45 44 11)" fill="#64748b"/>
  <rect x="47" y="6" width="13" height="9" rx="4" transform="rotate(45 47 6)" fill="#94a3b8"/>
</svg>
